# xmcd
#
# Track frame offsets:
#	150
#	14983
#	30096
#	50878
#	65393
#	84756
#	99997
#	118787
#	136092
#	153071
#
# Disc length: 2235 seconds
#
# Revision: 1
# Processed by: cddbd v1.5.2PL0 Copyright (c) Steve Scherf et al.
# Submitted via: audiograbber 1.83.01
#
DISCID=7308b90a
DTITLE=The Limit - Dystuncion The Limit
DYEAR=1999
DGENRE=Country
TTITLE0=Rejecting Healty
TTITLE1=Schweet Thang
TTITLE2=Keep My Heart Open
TTITLE3=What If
TTITLE4=Waiting For Good-bye
TTITLE5=Wrestle The Wind
TTITLE6=Leah´s Lie
TTITLE7=Heaven Dosen´t Want Me
TTITLE8=Regret
TTITLE9=We All Fall Down
EXTD=
EXTT0=
EXTT1=
EXTT2=
EXTT3=
EXTT4=
EXTT5=
EXTT6=
EXTT7=
EXTT8=
EXTT9=
PLAYORDER=
